<?xml version="1.0" encoding="utf-8"?>
<!-- Generator: Adobe Illustrator 24.1.0, SVG Export Plug-In . SVG Version: 6.00 Build 0)  -->
<svg version="1.1" id="Layer_1" xmlns="http://www.w3.org/2000/svg" xmlns:xlink="http://www.w3.org/1999/xlink" x="0px" y="0px"
	 viewBox="0 0 280.2 84.3" style="enable-background:new 0 0 280.2 84.3;" xml:space="preserve">
<style type="text/css">
	.st0{fill:#003DA5;}
	.st1{fill:#FFB81C;}
	.st2{fill:#FFFFFF;}
	.st3{fill:none;stroke:#FFB81C;stroke-miterlimit:10;}
</style>
<g>
	<g>
		<path class="st0" d="M182.4,30.6v-6.7c0-5.8-3.8-8-9.6-8h-9.7v37.9h6.2v-15h3.2l4.9,15h6.4l-5.3-16.2
			C181,36.6,182.4,34.3,182.4,30.6z M176.2,29.7c0,2.7-1.4,3.5-3.5,3.5h-3.4V21.3h3.4c2.1,0,3.5,0.8,3.5,3.5V29.7z"/>
		<path class="st0" d="M201.1,33.1l-4.4-2.5c-1.8-1-2.5-1.8-2.5-3.8v-2.6c0-2.5,1.4-3.2,3.2-3.2c1.8,0,3.2,0.9,3.2,3.2v5.3h6.1v-6.1
			c0-5.7-4.1-7.8-9.3-7.8h-0.1c-5.2,0-9.3,2.1-9.3,7.8v5c0,4,2.1,5.7,5.8,7.8l4.4,2.5c1.8,1,2.5,2,2.5,4v3.1c0,2.3-1.4,3.4-3.2,3.4
			s-3.2-1-3.2-3.4v-5.8h-6.1v6.6c0,6,3.6,7.9,9.3,7.9h0.1c5.8,0,9.3-2.1,9.3-7.9V41C206.9,36.7,204.7,35.1,201.1,33.1z"/>
		<rect x="213" y="15.9" class="st0" width="6.2" height="37.9"/>
		<path class="st0" d="M235.9,15.9h-9.7v37.9h9.7c5.8,0,9.6-2.3,9.6-8V23.8C245.4,18.2,241.5,15.9,235.9,15.9z M239.1,44.8
			c0,2.7-1.4,3.5-3.5,3.5h-3.2V21.6h3.2c2.1,0,3.5,0.8,3.5,3.5V44.8z"/>
		<polygon class="st0" points="258.2,48.3 258.2,37.4 266.7,37.4 266.7,31.7 258.2,31.7 258.2,21.3 268.4,21.3 268.4,15.9 
			251.8,15.9 251.8,53.8 268.7,53.8 268.7,48.3 		"/>
		<path class="st0" d="M97.2,30.6v-6.7c0-5.8-3.8-8-9.6-8h-9.7v37.9h6.2v-15h3.2l4.9,15h6.4l-5.3-16.2
			C95.8,36.6,97.2,34.3,97.2,30.6z M91,29.7c0,2.7-1.4,3.5-3.5,3.5h-3.4V21.3h3.4c2.1,0,3.5,0.8,3.5,3.5V29.7z"/>
		<rect x="104" y="15.9" class="st0" width="6.2" height="37.9"/>
		<polygon class="st0" points="125.7,43.9 121.3,15.9 115,15.9 122.1,53.8 129.1,53.8 136.2,15.9 130.1,15.9 		"/>
		<polygon class="st0" points="146.8,37.4 155.5,37.4 155.5,31.7 146.8,31.7 146.8,21.3 157.2,21.3 157.2,15.9 140.6,15.9 
			140.6,53.8 157.4,53.8 157.4,48.3 146.8,48.3 		"/>
	</g>
	<polygon class="st1" points="17.9,82.4 66.8,59.3 66.8,56.9 17.9,68.1 	"/>
	<polygon class="st0" points="66.8,0.7 0.5,10.3 0.5,72.1 66.8,56.9 	"/>
	<path class="st2" d="M55.8,46.2c0,5.8-3.8,8-9.6,8H46c-5.8,0-9.6-2.1-9.6-8V23.4c0-5.7,3.8-8,9.6-8h0.1c5.8,0,9.6,2.5,9.6,8v6.9
		h-6.2v-6c0-2.6-1.4-3.5-3.4-3.5s-3.4,0.8-3.4,3.5v20.8c0,2.6,1.4,3.5,3.4,3.5s3.4-0.8,3.4-3.5v-6.9h6.2V46.2z"/>
	<path class="st2" d="M24.3,15.9v29.4c0,2.7-1.2,3.5-3.2,3.5c-2,0-3.2-0.8-3.2-3.5V15.9h-6.2v30.3c0,6,3.6,8,9.4,8h0.2
		c5.8,0,9.4-2.1,9.4-8V15.9H24.3z"/>
	<line class="st3" x1="278.5" y1="15.2" x2="278.5" y2="54.1"/>
</g>
</svg>
